<mxfile modified="2022-05-08T22:48:24.140Z" host="app.diagrams.net" agent="5.0 (Windows NT 10.0; Win64; x64) AppleWebKit/537.36 (KHTML, like Gecko) Chrome/101.0.4951.54 Safari/537.36 Edg/101.0.1210.39" etag="3l61-W_veB3y_FGh3OjN" compressed="false" version="18.0.2" type="google">
  <diagram id="Grm80oispfe9WYevSSI7" name="Accreditation/Reports">
    <mxGraphModel grid="1" page="1" gridSize="10" guides="1" tooltips="1" connect="1" arrows="1" fold="1" pageScale="1" pageWidth="827" pageHeight="1169" math="0" shadow="0">
      <root>
        <mxCell id="4WsRXn-JhK4QWuQhd3xv-0" />
        <mxCell id="VNLtrw16Z6aEjRUWAlI5-2" value="About" parent="4WsRXn-JhK4QWuQhd3xv-0" />
        <UserObject label="" tooltip="" id="tC_9noo1Gh-eHRcomC2w-55">
          <mxCell style="shape=image;html=1;verticalAlign=top;verticalLabelPosition=bottom;labelBackgroundColor=#ffffff;imageAspect=0;aspect=fixed;image=https://cdn1.iconfinder.com/data/icons/hawcons/32/699014-icon-28-information-128.png;shadow=0;dashed=0;fontFamily=Helvetica;fontSize=12;fontColor=#000000;align=center;strokeColor=#000000;fillColor=#505050;dashPattern=1 1;" vertex="1" parent="VNLtrw16Z6aEjRUWAlI5-2">
            <mxGeometry x="660" y="980" width="20" height="20" as="geometry" />
          </mxCell>
        </UserObject>
        <mxCell id="VNLtrw16Z6aEjRUWAlI5-0" value="Title/Page" visible="0" parent="4WsRXn-JhK4QWuQhd3xv-0" />
        <mxCell id="0NC0N1TrcjwM5dcBMelX-0" value="" style="group;fontSize=10;" connectable="0" vertex="1" parent="VNLtrw16Z6aEjRUWAlI5-0">
          <mxGeometry x="120" y="120" width="560" height="45" as="geometry" />
        </mxCell>
        <mxCell id="0NC0N1TrcjwM5dcBMelX-1" value="&lt;font style=&quot;font-size: 12px&quot;&gt;Base Logical Module - Accreditation Report Components&lt;/font&gt;" style="text;strokeColor=none;fillColor=none;html=1;fontSize=12;fontStyle=1;verticalAlign=middle;align=left;shadow=0;glass=0;comic=0;opacity=30;fontColor=#808080;" vertex="1" parent="0NC0N1TrcjwM5dcBMelX-0">
          <mxGeometry width="560" height="40" as="geometry" />
        </mxCell>
        <mxCell id="0NC0N1TrcjwM5dcBMelX-2" value="" style="line;strokeWidth=2;html=1;shadow=0;glass=0;comic=0;fillColor=none;fontSize=10;fontColor=#CCCCCC;labelBackgroundColor=none;strokeColor=#CCCCCC;" vertex="1" parent="0NC0N1TrcjwM5dcBMelX-0">
          <mxGeometry y="35" width="560" height="10" as="geometry" />
        </mxCell>
        <mxCell id="VNLtrw16Z6aEjRUWAlI5-1" value="Title/Diagram" parent="4WsRXn-JhK4QWuQhd3xv-0" />
        <mxCell id="VNLtrw16Z6aEjRUWAlI5-3" value="&lt;font style=&quot;font-size: 12px&quot;&gt;Diagram: Base System Logical Module - Accreditation Report Components&lt;/font&gt;" style="text;strokeColor=none;fillColor=none;html=1;fontSize=12;fontStyle=2;verticalAlign=middle;align=left;shadow=0;glass=0;comic=0;opacity=30;fontColor=#808080;" vertex="1" parent="VNLtrw16Z6aEjRUWAlI5-1">
          <mxGeometry x="160" y="920" width="480" height="20" as="geometry" />
        </mxCell>
        <mxCell id="4WsRXn-JhK4QWuQhd3xv-1" value="Boxes" parent="4WsRXn-JhK4QWuQhd3xv-0" />
        <mxCell id="tC_9noo1Gh-eHRcomC2w-0" value="&lt;b style=&quot;font-size: 12px&quot;&gt;Report&lt;br style=&quot;font-size: 12px&quot;&gt;&lt;/b&gt;" style="rounded=1;align=center;fillColor=#F1F2F4;strokeColor=none;html=1;fontColor=#999999;fontSize=12;shadow=0;labelBackgroundColor=none;horizontal=1;" vertex="1" parent="4WsRXn-JhK4QWuQhd3xv-1">
          <mxGeometry x="160" y="170" width="320" height="20" as="geometry" />
        </mxCell>
        <mxCell id="tC_9noo1Gh-eHRcomC2w-1" value="&lt;b style=&quot;font-size: 12px&quot;&gt;Source&lt;br style=&quot;font-size: 12px&quot;&gt;&lt;/b&gt;" style="rounded=1;align=center;fillColor=#F1F2F4;strokeColor=none;html=1;fontColor=#999999;fontSize=12;shadow=0;labelBackgroundColor=none;horizontal=1;" vertex="1" parent="4WsRXn-JhK4QWuQhd3xv-1">
          <mxGeometry x="620" y="170" width="60" height="20" as="geometry" />
        </mxCell>
        <mxCell id="tC_9noo1Gh-eHRcomC2w-2" value="&lt;b style=&quot;font-size: 12px&quot;&gt;Action&lt;br style=&quot;font-size: 12px&quot;&gt;&lt;/b&gt;" style="rounded=1;align=center;fillColor=#F1F2F4;strokeColor=none;html=1;fontColor=#999999;fontSize=12;shadow=0;labelBackgroundColor=none;horizontal=1;" vertex="1" parent="4WsRXn-JhK4QWuQhd3xv-1">
          <mxGeometry x="520" y="170" width="80" height="20" as="geometry" />
        </mxCell>
        <mxCell id="tPB5b4zHR--UvLnDrJOZ-8" style="edgeStyle=elbowEdgeStyle;rounded=1;orthogonalLoop=1;jettySize=auto;html=1;fontSize=12;" edge="1" parent="4WsRXn-JhK4QWuQhd3xv-1" source="tPB5b4zHR--UvLnDrJOZ-0" target="tPB5b4zHR--UvLnDrJOZ-1">
          <mxGeometry relative="1" as="geometry" />
        </mxCell>
        <mxCell id="tPB5b4zHR--UvLnDrJOZ-9" value="" style="edgeStyle=orthogonalEdgeStyle;rounded=1;orthogonalLoop=1;jettySize=auto;html=1;entryX=0;entryY=0.5;entryDx=0;entryDy=0;fontSize=12;" edge="1" parent="4WsRXn-JhK4QWuQhd3xv-1" source="tPB5b4zHR--UvLnDrJOZ-0" target="tPB5b4zHR--UvLnDrJOZ-3">
          <mxGeometry relative="1" as="geometry">
            <Array as="points">
              <mxPoint x="260" y="329.04999999999995" />
              <mxPoint x="260" y="249.04999999999995" />
            </Array>
          </mxGeometry>
        </mxCell>
        <mxCell id="tPB5b4zHR--UvLnDrJOZ-10" style="edgeStyle=elbowEdgeStyle;rounded=1;orthogonalLoop=1;jettySize=auto;html=1;entryX=0;entryY=0.5;entryDx=0;entryDy=0;fontSize=12;" edge="1" parent="4WsRXn-JhK4QWuQhd3xv-1" source="tPB5b4zHR--UvLnDrJOZ-0" target="tPB5b4zHR--UvLnDrJOZ-4">
          <mxGeometry relative="1" as="geometry">
            <mxPoint x="240" y="389.04999999999995" as="sourcePoint" />
          </mxGeometry>
        </mxCell>
        <mxCell id="tPB5b4zHR--UvLnDrJOZ-11" style="edgeStyle=elbowEdgeStyle;rounded=1;orthogonalLoop=1;jettySize=auto;html=1;fontSize=12;entryX=0;entryY=0.5;entryDx=0;entryDy=0;exitX=1;exitY=0.5;exitDx=0;exitDy=0;" edge="1" parent="4WsRXn-JhK4QWuQhd3xv-1" source="tPB5b4zHR--UvLnDrJOZ-19" target="tPB5b4zHR--UvLnDrJOZ-5">
          <mxGeometry relative="1" as="geometry">
            <Array as="points">
              <mxPoint x="380" y="779.05" />
              <mxPoint x="390" y="749.05" />
              <mxPoint x="440" y="669.05" />
              <mxPoint x="380" y="669.05" />
            </Array>
          </mxGeometry>
        </mxCell>
        <mxCell id="tPB5b4zHR--UvLnDrJOZ-12" style="edgeStyle=orthogonalEdgeStyle;rounded=1;orthogonalLoop=1;jettySize=auto;html=1;entryX=0;entryY=0.5;entryDx=0;entryDy=0;fontSize=12;" edge="1" parent="4WsRXn-JhK4QWuQhd3xv-1" source="tPB5b4zHR--UvLnDrJOZ-0" target="tPB5b4zHR--UvLnDrJOZ-19">
          <mxGeometry relative="1" as="geometry">
            <mxPoint x="240" y="389.04999999999995" as="sourcePoint" />
          </mxGeometry>
        </mxCell>
        <mxCell id="tPB5b4zHR--UvLnDrJOZ-13" value="" style="edgeStyle=elbowEdgeStyle;rounded=1;orthogonalLoop=1;jettySize=auto;html=1;fontSize=12;" edge="1" parent="4WsRXn-JhK4QWuQhd3xv-1" source="tPB5b4zHR--UvLnDrJOZ-0" target="tPB5b4zHR--UvLnDrJOZ-7">
          <mxGeometry relative="1" as="geometry">
            <mxPoint x="240" y="389.04999999999995" as="sourcePoint" />
          </mxGeometry>
        </mxCell>
        <mxCell id="tC_9noo1Gh-eHRcomC2w-3" style="edgeStyle=elbowEdgeStyle;rounded=1;jumpStyle=none;orthogonalLoop=1;jettySize=auto;html=1;labelBackgroundColor=#ffffff;startArrow=none;startFill=0;endArrow=blockThin;endFill=1;endSize=6;strokeColor=#000000;strokeWidth=1;fontFamily=Helvetica;fontSize=12;fontColor=#000000;exitX=1;exitY=0.5;exitDx=0;exitDy=0;" edge="1" parent="4WsRXn-JhK4QWuQhd3xv-1" source="tC_9noo1Gh-eHRcomC2w-7" target="tPB5b4zHR--UvLnDrJOZ-69">
          <mxGeometry relative="1" as="geometry" />
        </mxCell>
        <mxCell id="tC_9noo1Gh-eHRcomC2w-8" style="edgeStyle=elbowEdgeStyle;rounded=1;jumpStyle=none;orthogonalLoop=1;jettySize=auto;html=1;entryX=0;entryY=0.5;entryDx=0;entryDy=0;labelBackgroundColor=#ffffff;startArrow=none;startFill=0;endArrow=blockThin;endFill=1;endSize=6;strokeColor=#000000;strokeWidth=1;fontFamily=Helvetica;fontSize=12;fontColor=#000000;" edge="1" parent="4WsRXn-JhK4QWuQhd3xv-1" source="tPB5b4zHR--UvLnDrJOZ-0" target="tC_9noo1Gh-eHRcomC2w-7">
          <mxGeometry relative="1" as="geometry" />
        </mxCell>
        <mxCell id="tPB5b4zHR--UvLnDrJOZ-0" value="Accreditation&lt;br style=&quot;font-size: 12px;&quot;&gt;Report" style="rounded=1;whiteSpace=wrap;html=1;shadow=0;glass=0;comic=0;strokeColor=#CCCCCC;fillColor=none;fontSize=12;align=center;fontColor=#333333;recursiveResize=0;container=1;collapsible=0;overflow=fill;" vertex="1" parent="4WsRXn-JhK4QWuQhd3xv-1">
          <mxGeometry x="160" y="309.04999999999995" width="80" height="40" as="geometry" />
        </mxCell>
        <mxCell id="tbh0r_EUjTMEQVnGFppu-1" style="edgeStyle=elbowEdgeStyle;rounded=1;jumpStyle=none;orthogonalLoop=1;jettySize=auto;html=1;labelBackgroundColor=#ffffff;startArrow=none;startFill=0;endArrow=blockThin;endFill=1;endSize=6;strokeColor=#000000;strokeWidth=1;fontFamily=Helvetica;fontSize=12;fontColor=#000000;" edge="1" parent="4WsRXn-JhK4QWuQhd3xv-1" source="tPB5b4zHR--UvLnDrJOZ-1" target="tbh0r_EUjTMEQVnGFppu-0">
          <mxGeometry relative="1" as="geometry" />
        </mxCell>
        <mxCell id="tPB5b4zHR--UvLnDrJOZ-1" value="&lt;font style=&quot;font-size: 12px;&quot;&gt;Privacy&lt;br style=&quot;font-size: 12px;&quot;&gt;Assessment&lt;br style=&quot;font-size: 12px;&quot;&gt;Report&lt;br style=&quot;font-size: 12px;&quot;&gt;&lt;/font&gt;" style="rounded=0;whiteSpace=wrap;html=1;shadow=0;glass=0;comic=0;strokeColor=#CCCCCC;fillColor=none;fontSize=12;align=center;fontColor=#333333;recursiveResize=0;container=1;collapsible=0;overflow=fill;" vertex="1" parent="4WsRXn-JhK4QWuQhd3xv-1">
          <mxGeometry x="400" y="459.99999999999994" width="80" height="40" as="geometry" />
        </mxCell>
        <mxCell id="tC_9noo1Gh-eHRcomC2w-6" style="edgeStyle=elbowEdgeStyle;rounded=1;jumpStyle=none;orthogonalLoop=1;jettySize=auto;html=1;labelBackgroundColor=#ffffff;startArrow=none;startFill=0;endArrow=blockThin;endFill=1;endSize=6;strokeColor=#000000;strokeWidth=1;fontFamily=Helvetica;fontSize=12;fontColor=#000000;" edge="1" parent="4WsRXn-JhK4QWuQhd3xv-1" source="tPB5b4zHR--UvLnDrJOZ-3" target="tPB5b4zHR--UvLnDrJOZ-23">
          <mxGeometry relative="1" as="geometry" />
        </mxCell>
        <mxCell id="tPB5b4zHR--UvLnDrJOZ-3" value="Security&lt;br style=&quot;font-size: 12px;&quot;&gt;Report" style="rounded=0;whiteSpace=wrap;html=1;shadow=0;glass=0;comic=0;strokeColor=#CCCCCC;fillColor=none;fontSize=12;align=center;fontColor=#333333;recursiveResize=0;container=1;collapsible=0;overflow=fill;" vertex="1" parent="4WsRXn-JhK4QWuQhd3xv-1">
          <mxGeometry x="280" y="229.04999999999995" width="80" height="40" as="geometry" />
        </mxCell>
        <mxCell id="tPB5b4zHR--UvLnDrJOZ-21" style="edgeStyle=elbowEdgeStyle;rounded=1;orthogonalLoop=1;jettySize=auto;html=1;entryX=0;entryY=0.5;entryDx=0;entryDy=0;exitX=1;exitY=0.5;exitDx=0;exitDy=0;fontSize=12;" edge="1" parent="4WsRXn-JhK4QWuQhd3xv-1" source="tPB5b4zHR--UvLnDrJOZ-4" target="tPB5b4zHR--UvLnDrJOZ-20">
          <mxGeometry relative="1" as="geometry" />
        </mxCell>
        <mxCell id="tPB5b4zHR--UvLnDrJOZ-4" value="Maintainability&lt;br style=&quot;font-size: 12px;&quot;&gt;Report" style="rounded=0;whiteSpace=wrap;html=1;shadow=0;glass=0;comic=0;strokeColor=#CCCCCC;fillColor=none;fontSize=12;align=center;fontColor=#333333;recursiveResize=0;container=1;collapsible=0;overflow=fill;" vertex="1" parent="4WsRXn-JhK4QWuQhd3xv-1">
          <mxGeometry x="280" y="579.05" width="80" height="40" as="geometry" />
        </mxCell>
        <mxCell id="tPB5b4zHR--UvLnDrJOZ-49" style="edgeStyle=elbowEdgeStyle;rounded=1;orthogonalLoop=1;jettySize=auto;html=1;fontSize=12;exitX=1;exitY=0.25;exitDx=0;exitDy=0;entryX=0;entryY=0.25;entryDx=0;entryDy=0;" edge="1" parent="4WsRXn-JhK4QWuQhd3xv-1" source="tPB5b4zHR--UvLnDrJOZ-5" target="tPB5b4zHR--UvLnDrJOZ-48">
          <mxGeometry relative="1" as="geometry" />
        </mxCell>
        <mxCell id="tC_9noo1Gh-eHRcomC2w-21" style="edgeStyle=elbowEdgeStyle;rounded=1;jumpStyle=none;orthogonalLoop=1;jettySize=auto;html=1;labelBackgroundColor=#ffffff;startArrow=none;startFill=0;endArrow=blockThin;endFill=1;endSize=6;strokeColor=#000000;strokeWidth=1;fontFamily=Helvetica;fontSize=12;fontColor=#000000;exitX=1;exitY=0.75;exitDx=0;exitDy=0;entryX=0;entryY=0.25;entryDx=0;entryDy=0;" edge="1" parent="4WsRXn-JhK4QWuQhd3xv-1" source="tPB5b4zHR--UvLnDrJOZ-5" target="tPB5b4zHR--UvLnDrJOZ-36">
          <mxGeometry relative="1" as="geometry" />
        </mxCell>
        <mxCell id="tPB5b4zHR--UvLnDrJOZ-5" value="Functionality&lt;br style=&quot;font-size: 12px;&quot;&gt;Report" style="rounded=0;whiteSpace=wrap;html=1;shadow=0;glass=0;comic=0;strokeColor=#CCCCCC;fillColor=none;fontSize=12;align=center;fontColor=#333333;recursiveResize=0;container=1;collapsible=0;overflow=fill;" vertex="1" parent="4WsRXn-JhK4QWuQhd3xv-1">
          <mxGeometry x="400" y="699.05" width="80" height="40" as="geometry" />
        </mxCell>
        <mxCell id="tPB5b4zHR--UvLnDrJOZ-29" style="edgeStyle=elbowEdgeStyle;rounded=1;orthogonalLoop=1;jettySize=auto;html=1;fontSize=12;" edge="1" parent="4WsRXn-JhK4QWuQhd3xv-1" source="tPB5b4zHR--UvLnDrJOZ-6" target="tPB5b4zHR--UvLnDrJOZ-27">
          <mxGeometry relative="1" as="geometry" />
        </mxCell>
        <mxCell id="0NC0N1TrcjwM5dcBMelX-7" style="edgeStyle=orthogonalEdgeStyle;rounded=1;jumpStyle=none;orthogonalLoop=1;jettySize=auto;html=1;labelBackgroundColor=#ffffff;startArrow=none;startFill=0;endArrow=blockThin;endFill=1;endSize=6;strokeColor=#000000;strokeWidth=1;fontFamily=Helvetica;fontSize=12;fontColor=#000000;exitX=1;exitY=0.25;exitDx=0;exitDy=0;" edge="1" parent="4WsRXn-JhK4QWuQhd3xv-1" source="tPB5b4zHR--UvLnDrJOZ-6" target="tPB5b4zHR--UvLnDrJOZ-30">
          <mxGeometry relative="1" as="geometry">
            <Array as="points">
              <mxPoint x="490" y="819.05" />
              <mxPoint x="490" y="220.04999999999995" />
            </Array>
          </mxGeometry>
        </mxCell>
        <mxCell id="tPB5b4zHR--UvLnDrJOZ-6" value="Performance&lt;br style=&quot;font-size: 12px;&quot;&gt;Report" style="rounded=0;whiteSpace=wrap;html=1;shadow=0;glass=0;comic=0;strokeColor=#CCCCCC;fillColor=none;fontSize=12;align=center;fontColor=#333333;recursiveResize=0;container=1;collapsible=0;overflow=fill;" vertex="1" parent="4WsRXn-JhK4QWuQhd3xv-1">
          <mxGeometry x="400" y="809.05" width="80" height="40" as="geometry" />
        </mxCell>
        <mxCell id="tC_9noo1Gh-eHRcomC2w-42" style="edgeStyle=elbowEdgeStyle;rounded=1;jumpStyle=none;orthogonalLoop=1;jettySize=auto;html=1;labelBackgroundColor=#ffffff;startArrow=none;startFill=0;endArrow=blockThin;endFill=1;endSize=6;strokeColor=#000000;strokeWidth=1;fontFamily=Helvetica;fontSize=12;fontColor=#000000;entryX=0;entryY=0.75;entryDx=0;entryDy=0;exitX=1;exitY=0.75;exitDx=0;exitDy=0;" edge="1" parent="4WsRXn-JhK4QWuQhd3xv-1" source="tPB5b4zHR--UvLnDrJOZ-7" target="0NC0N1TrcjwM5dcBMelX-5">
          <mxGeometry relative="1" as="geometry" />
        </mxCell>
        <mxCell id="tPB5b4zHR--UvLnDrJOZ-7" value="Supportability&lt;br style=&quot;font-size: 12px;&quot;&gt;Report" style="rounded=0;whiteSpace=wrap;html=1;shadow=0;glass=0;comic=0;strokeColor=#CCCCCC;fillColor=none;fontSize=12;align=center;fontColor=#333333;recursiveResize=0;container=1;collapsible=0;overflow=fill;" vertex="1" parent="4WsRXn-JhK4QWuQhd3xv-1">
          <mxGeometry x="280" y="860" width="80" height="40" as="geometry" />
        </mxCell>
        <mxCell id="tPB5b4zHR--UvLnDrJOZ-22" style="edgeStyle=elbowEdgeStyle;rounded=1;orthogonalLoop=1;jettySize=auto;html=1;fontSize=12;exitX=1;exitY=0.5;exitDx=0;exitDy=0;entryX=0;entryY=0.5;entryDx=0;entryDy=0;" edge="1" parent="4WsRXn-JhK4QWuQhd3xv-1" source="tPB5b4zHR--UvLnDrJOZ-19" target="tPB5b4zHR--UvLnDrJOZ-6">
          <mxGeometry relative="1" as="geometry">
            <Array as="points">
              <mxPoint x="380" y="799.05" />
              <mxPoint x="390" y="769.05" />
              <mxPoint x="370" y="679.05" />
              <mxPoint x="380" y="749.05" />
              <mxPoint x="410" y="659.05" />
            </Array>
          </mxGeometry>
        </mxCell>
        <mxCell id="tC_9noo1Gh-eHRcomC2w-46" style="edgeStyle=elbowEdgeStyle;rounded=1;jumpStyle=none;orthogonalLoop=1;jettySize=auto;html=1;labelBackgroundColor=#ffffff;startArrow=none;startFill=0;endArrow=blockThin;endFill=1;endSize=6;strokeColor=#000000;strokeWidth=1;fontFamily=Helvetica;fontSize=12;fontColor=#000000;" edge="1" parent="4WsRXn-JhK4QWuQhd3xv-1" source="tPB5b4zHR--UvLnDrJOZ-19" target="tPB5b4zHR--UvLnDrJOZ-4">
          <mxGeometry relative="1" as="geometry" />
        </mxCell>
        <mxCell id="tPB5b4zHR--UvLnDrJOZ-19" value="Test Report" style="rounded=0;whiteSpace=wrap;html=1;shadow=0;glass=0;comic=0;strokeColor=#CCCCCC;fillColor=none;fontSize=12;align=center;fontColor=#333333;recursiveResize=0;container=1;collapsible=0;overflow=fill;" vertex="1" parent="4WsRXn-JhK4QWuQhd3xv-1">
          <mxGeometry x="280" y="779.05" width="80" height="40" as="geometry" />
        </mxCell>
        <mxCell id="tPB5b4zHR--UvLnDrJOZ-35" style="edgeStyle=elbowEdgeStyle;rounded=1;orthogonalLoop=1;jettySize=auto;html=1;fontSize=12;" edge="1" parent="4WsRXn-JhK4QWuQhd3xv-1" source="tPB5b4zHR--UvLnDrJOZ-20" target="tPB5b4zHR--UvLnDrJOZ-34">
          <mxGeometry relative="1" as="geometry" />
        </mxCell>
        <mxCell id="tPB5b4zHR--UvLnDrJOZ-20" value="Code&lt;br style=&quot;font-size: 12px;&quot;&gt;Review&lt;br style=&quot;font-size: 12px;&quot;&gt;Report" style="rounded=0;whiteSpace=wrap;html=1;shadow=0;glass=0;comic=0;strokeColor=#CCCCCC;fillColor=none;fontSize=12;align=center;fontColor=#333333;recursiveResize=0;container=1;collapsible=0;overflow=fill;" vertex="1" parent="4WsRXn-JhK4QWuQhd3xv-1">
          <mxGeometry x="400" y="579.05" width="80" height="40" as="geometry" />
        </mxCell>
        <mxCell id="tPB5b4zHR--UvLnDrJOZ-32" style="edgeStyle=elbowEdgeStyle;rounded=1;orthogonalLoop=1;jettySize=auto;html=1;fontSize=12;" edge="1" parent="4WsRXn-JhK4QWuQhd3xv-1" source="tPB5b4zHR--UvLnDrJOZ-23" target="tPB5b4zHR--UvLnDrJOZ-31">
          <mxGeometry relative="1" as="geometry" />
        </mxCell>
        <mxCell id="tPB5b4zHR--UvLnDrJOZ-33" style="rounded=1;orthogonalLoop=1;jettySize=auto;html=1;fontSize=12;edgeStyle=elbowEdgeStyle;" edge="1" parent="4WsRXn-JhK4QWuQhd3xv-1" source="tPB5b4zHR--UvLnDrJOZ-23" target="tPB5b4zHR--UvLnDrJOZ-30">
          <mxGeometry relative="1" as="geometry" />
        </mxCell>
        <mxCell id="tPB5b4zHR--UvLnDrJOZ-23" value="Penetration Report" style="rounded=0;whiteSpace=wrap;html=1;shadow=0;glass=0;comic=0;strokeColor=#CCCCCC;fillColor=none;fontSize=12;align=center;fontColor=#333333;recursiveResize=0;container=1;collapsible=0;overflow=fill;" vertex="1" parent="4WsRXn-JhK4QWuQhd3xv-1">
          <mxGeometry x="400" y="229.04999999999995" width="80" height="40" as="geometry" />
        </mxCell>
        <mxCell id="tPB5b4zHR--UvLnDrJOZ-27" value="Performance Test" style="rounded=0;whiteSpace=wrap;html=1;shadow=0;glass=0;comic=0;strokeColor=#CCCCCC;fillColor=none;fontSize=12;align=center;fontColor=#333333;recursiveResize=0;container=1;collapsible=0;overflow=fill;" vertex="1" parent="4WsRXn-JhK4QWuQhd3xv-1">
          <mxGeometry x="520" y="809.05" width="80" height="40" as="geometry" />
        </mxCell>
        <mxCell id="tC_9noo1Gh-eHRcomC2w-24" style="edgeStyle=elbowEdgeStyle;rounded=1;jumpStyle=none;orthogonalLoop=1;jettySize=auto;html=1;labelBackgroundColor=#ffffff;startArrow=none;startFill=0;endArrow=blockThin;endFill=1;endSize=6;strokeColor=#000000;strokeWidth=1;fontFamily=Helvetica;fontSize=12;fontColor=#000000;" edge="1" parent="4WsRXn-JhK4QWuQhd3xv-1" source="tPB5b4zHR--UvLnDrJOZ-30" target="tC_9noo1Gh-eHRcomC2w-23">
          <mxGeometry relative="1" as="geometry" />
        </mxCell>
        <mxCell id="tPB5b4zHR--UvLnDrJOZ-30" value="Arch&lt;br style=&quot;font-size: 12px;&quot;&gt;Review" style="rounded=0;whiteSpace=wrap;html=1;shadow=0;glass=0;comic=0;strokeColor=#CCCCCC;fillColor=none;fontSize=12;align=center;fontColor=#333333;recursiveResize=0;container=1;collapsible=0;overflow=fill;" vertex="1" parent="4WsRXn-JhK4QWuQhd3xv-1">
          <mxGeometry x="520" y="200" width="80" height="40" as="geometry" />
        </mxCell>
        <mxCell id="tC_9noo1Gh-eHRcomC2w-26" style="edgeStyle=elbowEdgeStyle;rounded=1;jumpStyle=none;orthogonalLoop=1;jettySize=auto;html=1;labelBackgroundColor=#ffffff;startArrow=none;startFill=0;endArrow=blockThin;endFill=1;endSize=6;strokeColor=#000000;strokeWidth=1;fontFamily=Helvetica;fontSize=12;fontColor=#000000;" edge="1" parent="4WsRXn-JhK4QWuQhd3xv-1" source="tPB5b4zHR--UvLnDrJOZ-31" target="tC_9noo1Gh-eHRcomC2w-25">
          <mxGeometry relative="1" as="geometry" />
        </mxCell>
        <mxCell id="tPB5b4zHR--UvLnDrJOZ-31" value="Pen Test" style="rounded=0;whiteSpace=wrap;html=1;shadow=0;glass=0;comic=0;strokeColor=#CCCCCC;fillColor=none;fontSize=12;align=center;fontColor=#333333;recursiveResize=0;container=1;collapsible=0;overflow=fill;" vertex="1" parent="4WsRXn-JhK4QWuQhd3xv-1">
          <mxGeometry x="520" y="259.04999999999995" width="80" height="40" as="geometry" />
        </mxCell>
        <mxCell id="tPB5b4zHR--UvLnDrJOZ-34" value="Code Review" style="rounded=0;whiteSpace=wrap;html=1;shadow=0;glass=0;comic=0;strokeColor=#CCCCCC;fillColor=none;fontSize=12;align=center;fontColor=#333333;recursiveResize=0;container=1;collapsible=0;overflow=fill;" vertex="1" parent="4WsRXn-JhK4QWuQhd3xv-1">
          <mxGeometry x="520" y="609.05" width="80" height="40" as="geometry" />
        </mxCell>
        <mxCell id="tC_9noo1Gh-eHRcomC2w-17" style="edgeStyle=elbowEdgeStyle;rounded=1;jumpStyle=none;orthogonalLoop=1;jettySize=auto;html=1;labelBackgroundColor=#ffffff;startArrow=none;startFill=0;endArrow=blockThin;endFill=1;endSize=6;strokeColor=#000000;strokeWidth=1;fontFamily=Helvetica;fontSize=12;fontColor=#000000;" edge="1" parent="4WsRXn-JhK4QWuQhd3xv-1" source="tPB5b4zHR--UvLnDrJOZ-36" target="tPB5b4zHR--UvLnDrJOZ-40">
          <mxGeometry relative="1" as="geometry">
            <Array as="points">
              <mxPoint x="610" y="750" />
            </Array>
          </mxGeometry>
        </mxCell>
        <mxCell id="tPB5b4zHR--UvLnDrJOZ-36" value="Unit Tests" style="rounded=0;whiteSpace=wrap;html=1;shadow=0;glass=0;comic=0;strokeColor=#CCCCCC;fillColor=none;fontSize=12;align=center;fontColor=#333333;recursiveResize=0;container=1;collapsible=0;overflow=fill;" vertex="1" parent="4WsRXn-JhK4QWuQhd3xv-1">
          <mxGeometry x="520" y="759.05" width="80" height="40" as="geometry" />
        </mxCell>
        <mxCell id="tPB5b4zHR--UvLnDrJOZ-52" style="edgeStyle=elbowEdgeStyle;rounded=1;orthogonalLoop=1;jettySize=auto;html=1;fontSize=10;exitX=1;exitY=0.5;exitDx=0;exitDy=0;" edge="1" parent="4WsRXn-JhK4QWuQhd3xv-1" source="tPB5b4zHR--UvLnDrJOZ-27" target="tPB5b4zHR--UvLnDrJOZ-51">
          <mxGeometry relative="1" as="geometry">
            <mxPoint x="690" y="907.05" as="sourcePoint" />
          </mxGeometry>
        </mxCell>
        <mxCell id="tPB5b4zHR--UvLnDrJOZ-40" value="Pipeline&lt;br&gt;Test Reports" style="shape=image;html=1;verticalAlign=top;verticalLabelPosition=bottom;labelBackgroundColor=#ffffff;imageAspect=0;aspect=fixed;image=https://cdn0.iconfinder.com/data/icons/elasto-online-store/26/00-ELASTOFONT-STORE-READY_user-128.png;strokeColor=#333333;strokeWidth=1;align=center;" vertex="1" parent="4WsRXn-JhK4QWuQhd3xv-1">
          <mxGeometry x="650" y="709.0500000000002" width="20" height="20" as="geometry" />
        </mxCell>
        <mxCell id="tPB5b4zHR--UvLnDrJOZ-75" style="edgeStyle=elbowEdgeStyle;rounded=1;orthogonalLoop=1;jettySize=auto;html=1;fontSize=10;exitX=1;exitY=0.5;exitDx=0;exitDy=0;entryX=0;entryY=0.5;entryDx=0;entryDy=0;" edge="1" parent="4WsRXn-JhK4QWuQhd3xv-1" source="tPB5b4zHR--UvLnDrJOZ-48" target="tPB5b4zHR--UvLnDrJOZ-40">
          <mxGeometry relative="1" as="geometry">
            <Array as="points">
              <mxPoint x="630" y="729" />
            </Array>
            <mxPoint x="630" y="759.05" as="targetPoint" />
          </mxGeometry>
        </mxCell>
        <mxCell id="tPB5b4zHR--UvLnDrJOZ-48" value="Func Tests" style="rounded=0;whiteSpace=wrap;html=1;shadow=0;glass=0;comic=0;strokeColor=#CCCCCC;fillColor=none;fontSize=12;align=center;fontColor=#333333;recursiveResize=0;container=1;collapsible=0;overflow=fill;" vertex="1" parent="4WsRXn-JhK4QWuQhd3xv-1">
          <mxGeometry x="520" y="699.05" width="80" height="40" as="geometry" />
        </mxCell>
        <mxCell id="tPB5b4zHR--UvLnDrJOZ-51" value="Specialist" style="shape=image;html=1;verticalAlign=top;verticalLabelPosition=bottom;labelBackgroundColor=#ffffff;imageAspect=0;aspect=fixed;image=https://cdn0.iconfinder.com/data/icons/elasto-online-store/26/00-ELASTOFONT-STORE-READY_user-128.png;strokeColor=#333333;strokeWidth=1;align=center;" vertex="1" parent="4WsRXn-JhK4QWuQhd3xv-1">
          <mxGeometry x="650" y="819.05" width="20" height="20" as="geometry" />
        </mxCell>
        <mxCell id="tPB5b4zHR--UvLnDrJOZ-55" value="Dev Lead" style="shape=image;html=1;verticalAlign=top;verticalLabelPosition=bottom;labelBackgroundColor=#ffffff;imageAspect=0;aspect=fixed;image=https://cdn0.iconfinder.com/data/icons/elasto-online-store/26/00-ELASTOFONT-STORE-READY_user-128.png;strokeColor=#333333;strokeWidth=1;align=center;" vertex="1" parent="4WsRXn-JhK4QWuQhd3xv-1">
          <mxGeometry x="650" y="619.0499999999997" width="20" height="20" as="geometry" />
        </mxCell>
        <mxCell id="tC_9noo1Gh-eHRcomC2w-39" style="edgeStyle=elbowEdgeStyle;rounded=1;jumpStyle=none;orthogonalLoop=1;jettySize=auto;html=1;labelBackgroundColor=#ffffff;startArrow=none;startFill=0;endArrow=blockThin;endFill=1;endSize=6;strokeColor=#000000;strokeWidth=1;fontFamily=Helvetica;fontSize=12;fontColor=#000000;" edge="1" parent="4WsRXn-JhK4QWuQhd3xv-1" source="tPB5b4zHR--UvLnDrJOZ-63" target="tPB5b4zHR--UvLnDrJOZ-40">
          <mxGeometry relative="1" as="geometry">
            <Array as="points">
              <mxPoint x="610" y="530" />
            </Array>
          </mxGeometry>
        </mxCell>
        <mxCell id="tPB5b4zHR--UvLnDrJOZ-63" value="Accessibility&lt;br style=&quot;font-size: 12px;&quot;&gt;Review" style="rounded=0;whiteSpace=wrap;html=1;shadow=0;glass=0;comic=0;strokeColor=#CCCCCC;fillColor=none;fontSize=12;align=center;fontColor=#333333;recursiveResize=0;container=1;collapsible=0;overflow=fill;" vertex="1" parent="4WsRXn-JhK4QWuQhd3xv-1">
          <mxGeometry x="520" y="309.04999999999995" width="80" height="40" as="geometry" />
        </mxCell>
        <mxCell id="tC_9noo1Gh-eHRcomC2w-38" style="edgeStyle=elbowEdgeStyle;rounded=1;jumpStyle=none;orthogonalLoop=1;jettySize=auto;html=1;labelBackgroundColor=#ffffff;startArrow=none;startFill=0;endArrow=blockThin;endFill=1;endSize=6;strokeColor=#000000;strokeWidth=1;fontFamily=Helvetica;fontSize=12;fontColor=#000000;" edge="1" parent="4WsRXn-JhK4QWuQhd3xv-1" source="tPB5b4zHR--UvLnDrJOZ-64" target="tPB5b4zHR--UvLnDrJOZ-40">
          <mxGeometry relative="1" as="geometry">
            <Array as="points">
              <mxPoint x="610" y="560" />
            </Array>
          </mxGeometry>
        </mxCell>
        <mxCell id="tPB5b4zHR--UvLnDrJOZ-64" value="Usability&lt;br style=&quot;font-size: 12px;&quot;&gt;Review" style="rounded=0;whiteSpace=wrap;html=1;shadow=0;glass=0;comic=0;strokeColor=#CCCCCC;fillColor=none;fontSize=12;align=center;fontColor=#333333;recursiveResize=0;container=1;collapsible=0;overflow=fill;" vertex="1" parent="4WsRXn-JhK4QWuQhd3xv-1">
          <mxGeometry x="520" y="359.04999999999995" width="80" height="40" as="geometry" />
        </mxCell>
        <mxCell id="tC_9noo1Gh-eHRcomC2w-29" style="edgeStyle=elbowEdgeStyle;rounded=1;jumpStyle=none;orthogonalLoop=1;jettySize=auto;html=1;labelBackgroundColor=#ffffff;startArrow=none;startFill=0;endArrow=blockThin;endFill=1;endSize=6;strokeColor=#000000;strokeWidth=1;fontFamily=Helvetica;fontSize=12;fontColor=#000000;" edge="1" parent="4WsRXn-JhK4QWuQhd3xv-1" source="tPB5b4zHR--UvLnDrJOZ-68" target="tC_9noo1Gh-eHRcomC2w-23">
          <mxGeometry relative="1" as="geometry" />
        </mxCell>
        <mxCell id="tPB5b4zHR--UvLnDrJOZ-68" value="Archive Review" style="rounded=0;whiteSpace=wrap;html=1;shadow=0;glass=0;comic=0;strokeColor=#CCCCCC;fillColor=none;fontSize=12;align=center;fontColor=#333333;recursiveResize=0;container=1;collapsible=0;overflow=fill;" vertex="1" parent="4WsRXn-JhK4QWuQhd3xv-1">
          <mxGeometry x="520" y="409.04999999999995" width="80" height="40" as="geometry" />
        </mxCell>
        <mxCell id="tPB5b4zHR--UvLnDrJOZ-70" style="edgeStyle=elbowEdgeStyle;rounded=1;orthogonalLoop=1;jettySize=auto;html=1;fontSize=12;entryX=0;entryY=0.5;entryDx=0;entryDy=0;exitX=1;exitY=0.5;exitDx=0;exitDy=0;" edge="1" parent="4WsRXn-JhK4QWuQhd3xv-1" source="tPB5b4zHR--UvLnDrJOZ-69" target="tPB5b4zHR--UvLnDrJOZ-63">
          <mxGeometry relative="1" as="geometry">
            <Array as="points">
              <mxPoint x="500" y="319.04999999999995" />
            </Array>
          </mxGeometry>
        </mxCell>
        <mxCell id="tPB5b4zHR--UvLnDrJOZ-71" style="edgeStyle=elbowEdgeStyle;rounded=1;orthogonalLoop=1;jettySize=auto;html=1;fontSize=12;" edge="1" parent="4WsRXn-JhK4QWuQhd3xv-1" source="tPB5b4zHR--UvLnDrJOZ-69" target="tPB5b4zHR--UvLnDrJOZ-64">
          <mxGeometry relative="1" as="geometry">
            <Array as="points">
              <mxPoint x="500" y="339.04999999999995" />
            </Array>
          </mxGeometry>
        </mxCell>
        <mxCell id="tPB5b4zHR--UvLnDrJOZ-72" style="edgeStyle=elbowEdgeStyle;rounded=1;orthogonalLoop=1;jettySize=auto;html=1;fontSize=12;" edge="1" parent="4WsRXn-JhK4QWuQhd3xv-1" source="tPB5b4zHR--UvLnDrJOZ-69" target="tPB5b4zHR--UvLnDrJOZ-68">
          <mxGeometry relative="1" as="geometry">
            <Array as="points">
              <mxPoint x="500" y="369.04999999999995" />
            </Array>
            <mxPoint x="440" y="349.04999999999995" as="sourcePoint" />
          </mxGeometry>
        </mxCell>
        <mxCell id="tbh0r_EUjTMEQVnGFppu-2" style="edgeStyle=elbowEdgeStyle;rounded=1;jumpStyle=none;orthogonalLoop=1;jettySize=auto;html=1;labelBackgroundColor=#ffffff;startArrow=none;startFill=0;endArrow=blockThin;endFill=1;endSize=6;strokeColor=#000000;strokeWidth=1;fontFamily=Helvetica;fontSize=12;fontColor=#000000;exitX=1;exitY=0.5;exitDx=0;exitDy=0;" edge="1" parent="4WsRXn-JhK4QWuQhd3xv-1" source="tPB5b4zHR--UvLnDrJOZ-69" target="tbh0r_EUjTMEQVnGFppu-0">
          <mxGeometry relative="1" as="geometry">
            <Array as="points">
              <mxPoint x="500" y="349.04999999999995" />
              <mxPoint x="490" y="389.04999999999995" />
            </Array>
          </mxGeometry>
        </mxCell>
        <mxCell id="tPB5b4zHR--UvLnDrJOZ-69" value="Compliance&lt;br style=&quot;font-size: 12px;&quot;&gt;Review Report" style="rounded=0;whiteSpace=wrap;html=1;shadow=0;glass=0;comic=0;strokeColor=#CCCCCC;fillColor=none;fontSize=12;align=center;fontColor=#333333;recursiveResize=0;container=1;collapsible=0;overflow=fill;" vertex="1" parent="4WsRXn-JhK4QWuQhd3xv-1">
          <mxGeometry x="400" y="279.04999999999995" width="80" height="40" as="geometry" />
        </mxCell>
        <mxCell id="tPB5b4zHR--UvLnDrJOZ-77" style="edgeStyle=elbowEdgeStyle;rounded=1;orthogonalLoop=1;jettySize=auto;html=1;entryX=0;entryY=0.5;entryDx=0;entryDy=0;fontSize=10;" edge="1" parent="4WsRXn-JhK4QWuQhd3xv-1" source="tPB5b4zHR--UvLnDrJOZ-34" target="tPB5b4zHR--UvLnDrJOZ-55">
          <mxGeometry relative="1" as="geometry">
            <mxPoint x="335.28571428571433" y="-50.950000000000045" as="sourcePoint" />
            <mxPoint x="410.1428571428571" y="-101.09285714285721" as="targetPoint" />
          </mxGeometry>
        </mxCell>
        <mxCell id="tC_9noo1Gh-eHRcomC2w-28" style="edgeStyle=elbowEdgeStyle;rounded=1;jumpStyle=none;orthogonalLoop=1;jettySize=auto;html=1;entryX=0;entryY=0.5;entryDx=0;entryDy=0;labelBackgroundColor=#ffffff;startArrow=none;startFill=0;endArrow=blockThin;endFill=1;endSize=6;strokeColor=#000000;strokeWidth=1;fontFamily=Helvetica;fontSize=12;fontColor=#000000;" edge="1" parent="4WsRXn-JhK4QWuQhd3xv-1" source="tbh0r_EUjTMEQVnGFppu-0" target="tC_9noo1Gh-eHRcomC2w-27">
          <mxGeometry relative="1" as="geometry" />
        </mxCell>
        <mxCell id="tbh0r_EUjTMEQVnGFppu-0" value="Privacy&lt;br style=&quot;font-size: 12px;&quot;&gt;Assessment" style="rounded=0;whiteSpace=wrap;html=1;shadow=0;glass=0;comic=0;strokeColor=#CCCCCC;fillColor=none;fontSize=12;align=center;fontColor=#333333;recursiveResize=0;container=1;collapsible=0;overflow=fill;" vertex="1" parent="4WsRXn-JhK4QWuQhd3xv-1">
          <mxGeometry x="520" y="459.99999999999994" width="80" height="40" as="geometry" />
        </mxCell>
        <mxCell id="tC_9noo1Gh-eHRcomC2w-44" style="edgeStyle=elbowEdgeStyle;rounded=1;jumpStyle=none;orthogonalLoop=1;jettySize=auto;html=1;labelBackgroundColor=#ffffff;startArrow=none;startFill=0;endArrow=blockThin;endFill=1;endSize=6;strokeColor=#000000;strokeWidth=1;fontFamily=Helvetica;fontSize=12;fontColor=#000000;" edge="1" parent="4WsRXn-JhK4QWuQhd3xv-1" source="0NC0N1TrcjwM5dcBMelX-4" target="tPB5b4zHR--UvLnDrJOZ-34">
          <mxGeometry relative="1" as="geometry" />
        </mxCell>
        <mxCell id="0NC0N1TrcjwM5dcBMelX-4" value="Monitoring Report" style="rounded=0;whiteSpace=wrap;html=1;shadow=0;glass=0;comic=0;strokeColor=#CCCCCC;fillColor=none;fontSize=12;align=center;fontColor=#333333;recursiveResize=0;container=1;collapsible=0;overflow=fill;" vertex="1" parent="4WsRXn-JhK4QWuQhd3xv-1">
          <mxGeometry x="400" y="639.05" width="80" height="40" as="geometry" />
        </mxCell>
        <mxCell id="tC_9noo1Gh-eHRcomC2w-15" style="edgeStyle=elbowEdgeStyle;rounded=1;jumpStyle=none;orthogonalLoop=1;jettySize=auto;html=1;labelBackgroundColor=#ffffff;startArrow=none;startFill=0;endArrow=blockThin;endFill=1;endSize=6;strokeColor=#000000;strokeWidth=1;fontFamily=Helvetica;fontSize=12;fontColor=#000000;" edge="1" parent="4WsRXn-JhK4QWuQhd3xv-1" source="0NC0N1TrcjwM5dcBMelX-5" target="tC_9noo1Gh-eHRcomC2w-13">
          <mxGeometry relative="1" as="geometry" />
        </mxCell>
        <mxCell id="0NC0N1TrcjwM5dcBMelX-5" value="Supportability&lt;br style=&quot;font-size: 12px;&quot;&gt;Review" style="rounded=0;whiteSpace=wrap;html=1;shadow=0;glass=0;comic=0;strokeColor=#CCCCCC;fillColor=none;fontSize=12;align=center;fontColor=#333333;recursiveResize=0;container=1;collapsible=0;overflow=fill;" vertex="1" parent="4WsRXn-JhK4QWuQhd3xv-1">
          <mxGeometry x="520" y="860" width="80" height="40" as="geometry" />
        </mxCell>
        <mxCell id="tC_9noo1Gh-eHRcomC2w-7" value="Compliance&lt;br style=&quot;font-size: 12px;&quot;&gt;Report" style="rounded=0;whiteSpace=wrap;html=1;shadow=0;glass=0;comic=0;strokeColor=#CCCCCC;fillColor=none;fontSize=12;align=center;fontColor=#333333;recursiveResize=0;container=1;collapsible=0;overflow=fill;" vertex="1" parent="4WsRXn-JhK4QWuQhd3xv-1">
          <mxGeometry x="280" y="279.04999999999995" width="80" height="40" as="geometry" />
        </mxCell>
        <mxCell id="tC_9noo1Gh-eHRcomC2w-13" value="Specialist" style="shape=image;html=1;verticalAlign=top;verticalLabelPosition=bottom;labelBackgroundColor=#ffffff;imageAspect=0;aspect=fixed;image=https://cdn0.iconfinder.com/data/icons/elasto-online-store/26/00-ELASTOFONT-STORE-READY_user-128.png;strokeColor=#333333;strokeWidth=1;align=center;" vertex="1" parent="4WsRXn-JhK4QWuQhd3xv-1">
          <mxGeometry x="650" y="870" width="20" height="20" as="geometry" />
        </mxCell>
        <mxCell id="tC_9noo1Gh-eHRcomC2w-23" value="Architect" style="shape=image;html=1;verticalAlign=top;verticalLabelPosition=bottom;labelBackgroundColor=#ffffff;imageAspect=0;aspect=fixed;image=https://cdn0.iconfinder.com/data/icons/elasto-online-store/26/00-ELASTOFONT-STORE-READY_user-128.png;strokeColor=#333333;strokeWidth=1;align=center;" vertex="1" parent="4WsRXn-JhK4QWuQhd3xv-1">
          <mxGeometry x="650" y="319.0499999999997" width="20" height="20" as="geometry" />
        </mxCell>
        <mxCell id="tC_9noo1Gh-eHRcomC2w-25" value="Specialist" style="shape=image;html=1;verticalAlign=top;verticalLabelPosition=bottom;labelBackgroundColor=#ffffff;imageAspect=0;aspect=fixed;image=https://cdn0.iconfinder.com/data/icons/elasto-online-store/26/00-ELASTOFONT-STORE-READY_user-128.png;strokeColor=#333333;strokeWidth=1;align=center;" vertex="1" parent="4WsRXn-JhK4QWuQhd3xv-1">
          <mxGeometry x="650" y="269.04999999999995" width="20" height="20" as="geometry" />
        </mxCell>
        <mxCell id="tC_9noo1Gh-eHRcomC2w-27" value="Privacy &lt;br&gt;Officer" style="shape=image;html=1;verticalAlign=top;verticalLabelPosition=bottom;labelBackgroundColor=#ffffff;imageAspect=0;aspect=fixed;image=https://cdn0.iconfinder.com/data/icons/elasto-online-store/26/00-ELASTOFONT-STORE-READY_user-128.png;strokeColor=#333333;strokeWidth=1;align=center;" vertex="1" parent="4WsRXn-JhK4QWuQhd3xv-1">
          <mxGeometry x="650" y="469.99999999999994" width="20" height="20" as="geometry" />
        </mxCell>
        <mxCell id="tC_9noo1Gh-eHRcomC2w-43" style="edgeStyle=elbowEdgeStyle;rounded=1;jumpStyle=none;orthogonalLoop=1;jettySize=auto;html=1;labelBackgroundColor=#ffffff;startArrow=none;startFill=0;endArrow=blockThin;endFill=1;endSize=6;strokeColor=#000000;strokeWidth=1;fontFamily=Helvetica;fontSize=12;fontColor=#000000;entryX=0;entryY=0.5;entryDx=0;entryDy=0;" edge="1" parent="4WsRXn-JhK4QWuQhd3xv-1" source="tC_9noo1Gh-eHRcomC2w-41" target="tPB5b4zHR--UvLnDrJOZ-36">
          <mxGeometry relative="1" as="geometry" />
        </mxCell>
        <mxCell id="tC_9noo1Gh-eHRcomC2w-41" value="Backup &amp;amp; &lt;br&gt;DR Report" style="rounded=0;whiteSpace=wrap;html=1;shadow=0;glass=0;comic=0;strokeColor=#CCCCCC;fillColor=none;fontSize=12;align=center;fontColor=#333333;recursiveResize=0;container=1;collapsible=0;overflow=fill;" vertex="1" parent="4WsRXn-JhK4QWuQhd3xv-1">
          <mxGeometry x="400" y="759.05" width="80" height="40" as="geometry" />
        </mxCell>
        <mxCell id="tC_9noo1Gh-eHRcomC2w-53" style="edgeStyle=elbowEdgeStyle;rounded=1;jumpStyle=none;orthogonalLoop=1;jettySize=auto;html=1;labelBackgroundColor=#ffffff;startArrow=none;startFill=0;endArrow=blockThin;endFill=1;endSize=6;strokeColor=#000000;strokeWidth=1;fontFamily=Helvetica;fontSize=12;fontColor=#000000;" edge="1" parent="4WsRXn-JhK4QWuQhd3xv-1" source="tC_9noo1Gh-eHRcomC2w-49" target="tC_9noo1Gh-eHRcomC2w-50">
          <mxGeometry relative="1" as="geometry" />
        </mxCell>
        <mxCell id="tC_9noo1Gh-eHRcomC2w-49" value="SEO Report" style="rounded=0;whiteSpace=wrap;html=1;shadow=0;glass=0;comic=0;strokeColor=#CCCCCC;fillColor=none;fontSize=12;align=center;fontColor=#333333;recursiveResize=0;container=1;collapsible=0;overflow=fill;" vertex="1" parent="4WsRXn-JhK4QWuQhd3xv-1">
          <mxGeometry x="400" y="520" width="80" height="40" as="geometry" />
        </mxCell>
        <mxCell id="tC_9noo1Gh-eHRcomC2w-54" style="edgeStyle=elbowEdgeStyle;rounded=1;jumpStyle=none;orthogonalLoop=1;jettySize=auto;html=1;labelBackgroundColor=#ffffff;startArrow=none;startFill=0;endArrow=blockThin;endFill=1;endSize=6;strokeColor=#000000;strokeWidth=1;fontFamily=Helvetica;fontSize=12;fontColor=#000000;" edge="1" parent="4WsRXn-JhK4QWuQhd3xv-1" source="tC_9noo1Gh-eHRcomC2w-50" target="tPB5b4zHR--UvLnDrJOZ-40">
          <mxGeometry relative="1" as="geometry">
            <Array as="points">
              <mxPoint x="610" y="630" />
            </Array>
          </mxGeometry>
        </mxCell>
        <mxCell id="tC_9noo1Gh-eHRcomC2w-50" value="SEO Review" style="rounded=0;whiteSpace=wrap;html=1;shadow=0;glass=0;comic=0;strokeColor=#CCCCCC;fillColor=none;fontSize=12;align=center;fontColor=#333333;recursiveResize=0;container=1;collapsible=0;overflow=fill;" vertex="1" parent="4WsRXn-JhK4QWuQhd3xv-1">
          <mxGeometry x="520" y="520" width="80" height="40" as="geometry" />
        </mxCell>
        <mxCell id="tC_9noo1Gh-eHRcomC2w-52" style="edgeStyle=elbowEdgeStyle;rounded=1;jumpStyle=none;orthogonalLoop=1;jettySize=auto;html=1;labelBackgroundColor=#ffffff;startArrow=none;startFill=0;endArrow=blockThin;endFill=1;endSize=6;strokeColor=#000000;strokeWidth=1;fontFamily=Helvetica;fontSize=12;fontColor=#000000;" edge="1" parent="4WsRXn-JhK4QWuQhd3xv-1" source="tC_9noo1Gh-eHRcomC2w-51" target="tC_9noo1Gh-eHRcomC2w-49">
          <mxGeometry relative="1" as="geometry" />
        </mxCell>
        <mxCell id="tC_9noo1Gh-eHRcomC2w-51" value="Usability Report" style="rounded=0;whiteSpace=wrap;html=1;shadow=0;glass=0;comic=0;strokeColor=#CCCCCC;fillColor=none;fontSize=12;align=center;fontColor=#333333;recursiveResize=0;container=1;collapsible=0;overflow=fill;" vertex="1" parent="4WsRXn-JhK4QWuQhd3xv-1">
          <mxGeometry x="280" y="520" width="80" height="40" as="geometry" />
        </mxCell>
      </root>
    </mxGraphModel>
  </diagram>
</mxfile>
